<svg xmlns="http://www.w3.org/2000/svg"  viewBox="0 0 64 64" width="64px" height="64px"><linearGradient id="ZBQ5LAaRGEOpSCckDFM25a" x1="38" x2="38" y1="54.852" y2="-34.87" gradientTransform="matrix(1 0 0 -1 0 66)" gradientUnits="userSpaceOnUse"><stop offset="0" stop-color="#6dc7ff"/><stop offset=".027" stop-color="#76c5ff"/><stop offset=".15" stop-color="#98bdff"/><stop offset=".281" stop-color="#b4b6ff"/><stop offset=".421" stop-color="#cab1ff"/><stop offset=".575" stop-color="#daaeff"/><stop offset=".75" stop-color="#e3acff"/><stop offset="1" stop-color="#e6abff"/></linearGradient><path fill="url(#ZBQ5LAaRGEOpSCckDFM25a)" d="M42,11c0,0,8,3,1,6c-4.55,1.95-5.298,0.097-5.263-1.438c0.019-0.845-0.325-1.637-0.944-2.211	C35.681,12.319,37,11,37,11H42z M26,17l-3,3l-1,5l-1,4l2,6c0,0,4.789,6.894,4,4c-3-11,7-5,6-11c-0.232-1.395,1.624-1.545,3-2	c3.686-1.219,6.157-1.157,7-2c0.594-0.594,0.129-0.835-0.346-0.933c-0.56-0.115-1.105-0.292-1.616-0.548L40,22	c-2.25-1.125-3.235-0.984-3.665-0.646c-0.497,0.391-1.089,0.646-1.719,0.584c-0.468-0.046-0.856-0.116-1.179-0.202	c-0.842-0.225-0.662-1.439,0.209-1.458c0.03-0.001,0.06-0.002,0.089-0.003C35.022,20.217,36,19.084,36,17.797V16c0-3-6-3-6-3L26,17z M50,38c4,0,5-9,5-9c-2.629,0.526-3.599,1.328-3.928,1.971c-0.311,0.608-0.895,1.032-1.575,1.096	c-2.048,0.192-3.206,0.762-3.832,1.234c-0.571,0.43-1.255,0.686-1.966,0.755C40.381,34.381,42,36,42,36L50,38z M55,39l-16.895,4.969	L26,31v1l5,22l1,2L55,39z"/><linearGradient id="ZBQ5LAaRGEOpSCckDFM25b" x1="31.242" x2="31.242" y1="56" y2="9" gradientTransform="matrix(1 0 0 -1 0 66)" gradientUnits="userSpaceOnUse"><stop offset="0" stop-color="#1a6dff"/><stop offset="1" stop-color="#c822ff"/></linearGradient><path fill="url(#ZBQ5LAaRGEOpSCckDFM25b)" d="M54.976,38.855c-0.006-0.043-0.009-0.085-0.021-0.127c-0.03-0.104-0.075-0.2-0.134-0.288	c-0.007-0.011-0.008-0.024-0.016-0.035c-0.001-0.002-0.003-0.002-0.004-0.004c-0.072-0.096-0.164-0.176-0.267-0.241	c-0.034-0.021-0.07-0.033-0.105-0.05c-0.051-0.024-0.097-0.056-0.152-0.072l-1.151-0.329C54.964,34.841,56,31.479,56,28	c0-9.925-8.075-18-18-18c-6.724,0-12.59,3.713-15.68,9.19c-2.013,0.79-12.178,5.131-15.074,13.295	c-1.46,4.115-0.822,8.499,1.896,13.03c3.11,5.183,9.002,8.007,16.31,8.007c1.284-0.001,2.614-0.093,3.978-0.27l0.589,2.945	c0.001,0.007,0.006,0.013,0.007,0.02c0.006,0.028,0.021,0.053,0.03,0.081c0.029,0.091,0.066,0.175,0.118,0.252	c0.01,0.015,0.011,0.032,0.021,0.046c0.011,0.015,0.03,0.021,0.042,0.035c0.086,0.104,0.186,0.194,0.306,0.256	c0.006,0.003,0.011,0.009,0.018,0.012c0.095,0.046,0.197,0.079,0.306,0.094C30.912,56.997,30.956,57,31,57l0,0l0,0	c0.001,0,0.003-0.001,0.004-0.001c0.098,0,0.194-0.017,0.286-0.045c0.028-0.008,0.053-0.024,0.08-0.035	c0.067-0.027,0.132-0.058,0.192-0.099c0.01-0.007,0.022-0.009,0.032-0.017l22.979-16.985c0.001-0.001,0.001-0.001,0.002-0.002	l0.018-0.014c0.013-0.01,0.019-0.025,0.032-0.035c0.08-0.065,0.148-0.14,0.205-0.226c0.023-0.035,0.038-0.071,0.056-0.108	c0.034-0.07,0.06-0.141,0.078-0.218c0.01-0.045,0.017-0.087,0.021-0.133C54.989,39.053,55,39.026,55,38.996	C55,38.947,54.983,38.902,54.976,38.855z M37.342,42.857l-8.455-9.992l21.521,6.148L37.342,42.857z M27.741,34.605l8.07,9.537	l-4.401,8.804L27.741,34.605z M37.7,44.836l11.165-3.284L33.759,52.718L37.7,44.836z M38,12c8.822,0,16,7.178,16,16	c0,3.299-1.045,6.479-2.892,9.133l-24.834-7.095c-0.011-0.003-0.022,0-0.033-0.002c-0.221-0.056-0.46-0.041-0.676,0.064	c-0.011,0.005-0.019,0.015-0.03,0.021c-0.03,0.016-0.053,0.039-0.081,0.058c-0.073,0.049-0.141,0.101-0.198,0.166	c-0.027,0.031-0.048,0.065-0.071,0.099c-0.047,0.069-0.085,0.14-0.114,0.219c-0.009,0.023-0.026,0.04-0.033,0.064	c-0.006,0.02,0,0.039-0.005,0.059c-0.018,0.08-0.022,0.161-0.019,0.245c0.001,0.043-0.003,0.084,0.004,0.126	c0.002,0.014-0.001,0.027,0.001,0.041l1.605,8.026C23.712,36.273,22,32.276,22,28C22,19.178,29.178,12,38,12z M23.24,38.29	c-1.862-0.919-3.1-2.118-3.649-3.612c-0.681-1.853-0.31-3.952,0.436-5.871C20.18,32.266,21.319,35.538,23.24,38.29z M16.48,26.37	c0.834-1.774,2.218-3.24,3.966-4.127c0.219-0.111,0.429-0.215,0.63-0.312c-0.191,0.531-0.356,1.073-0.498,1.625	c-1.86,2.752-4.41,7.597-2.866,11.806c1.064,2.9,3.857,4.927,8.299,6.053c0.382,0.097,1.028,0.215,1.028,0.215l0.491,2.116	c-6.773-1.221-10.908-3.707-12.294-7.404C14.037,33.148,15.026,29.464,16.48,26.37z M13.513,26.926	c0.278-0.255,0.562-0.502,0.848-0.741c-1.452,3.337-2.341,7.273-0.999,10.856c1.703,4.549,6.615,7.505,14.588,8.804l0.414,2.072	c-7.968-0.537-13.316-2.968-15.91-7.238c-1.403-2.31-1.85-4.931-1.814-7.419C10.675,30.853,11.737,28.552,13.513,26.926z M10.857,44.485c-1.997-3.329-2.715-6.528-2.181-9.543c0.168,2.279,0.759,4.615,2.063,6.766c3.007,4.962,9.075,7.723,18.028,8.231	l0.268,1.338C16.938,52.818,12.088,46.536,10.857,44.485z"/></svg>